<svg width="20" height="20" viewBox="0 0 20 20" fill="none" xmlns="http://www.w3.org/2000/svg">
<path d="M3.70879 7.01881C5.25707 5.73545 7.48143 4.375 10.0002 4.375C12.519 4.375 14.7433 5.73545 16.2916 7.01881C17.0746 7.66784 17.7067 8.31544 18.1433 8.80075C18.362 9.04381 18.5325 9.24723 18.6494 9.3912C18.7079 9.46321 18.753 9.52044 18.7841 9.56041C18.7996 9.5804 18.8116 9.59608 18.82 9.60715L18.83 9.62026L18.8329 9.62415L18.8338 9.62541C18.8338 9.62541 18.8344 9.62622 18.3335 10C18.8344 10.3738 18.8342 10.3741 18.8342 10.3741L18.8329 10.3759L18.83 10.3797L18.82 10.3928C18.8116 10.4039 18.7996 10.4196 18.7841 10.4396C18.753 10.4796 18.7079 10.5368 18.6494 10.6088C18.5325 10.7528 18.362 10.9562 18.1433 11.1993C17.7067 11.6846 17.0746 12.3322 16.2916 12.9812C14.7433 14.2645 12.519 15.625 10.0002 15.625C7.48143 15.625 5.25707 14.2645 3.70879 12.9812C2.92578 12.3322 2.29368 11.6846 1.85709 11.1993C1.63843 10.9562 1.46786 10.7528 1.35096 10.6088C1.29249 10.5368 1.24738 10.4796 1.21633 10.4396C1.2008 10.4196 1.18878 10.4039 1.18035 10.3928L1.17042 10.3797L1.1675 10.3759L1.16655 10.3746C1.16655 10.3746 1.16595 10.3738 1.66686 10C1.16595 9.62622 1.16621 9.62587 1.16621 9.62587L1.1675 9.62415L1.17042 9.62026L1.18035 9.60715C1.18878 9.59608 1.2008 9.5804 1.21633 9.56041C1.24738 9.52044 1.29249 9.46321 1.35096 9.3912C1.46786 9.24723 1.63843 9.04381 1.85709 8.80075C2.29368 8.31544 2.92578 7.66784 3.70879 7.01881ZM1.66686 10L1.16621 9.62587C1.00076 9.8476 1.0005 10.1521 1.16595 10.3738L1.66686 10ZM2.46969 10C2.55752 10.1041 2.6635 10.2266 2.78639 10.3632C3.19318 10.8154 3.78146 11.4178 4.50649 12.0188C5.97428 13.2355 7.91659 14.375 10.0002 14.375C12.0838 14.375 14.0261 13.2355 15.4939 12.0188C16.2189 11.4178 16.8072 10.8154 17.214 10.3632C17.3369 10.2266 17.4429 10.1041 17.5307 10C17.4429 9.89586 17.3369 9.77336 17.214 9.63675C16.8072 9.18456 16.2189 8.58216 15.4939 7.98119C14.0261 6.76455 12.0838 5.625 10.0002 5.625C7.91659 5.625 5.97428 6.76455 4.50649 7.98119C3.78146 8.58216 3.19318 9.18456 2.78639 9.63675C2.6635 9.77336 2.55752 9.89586 2.46969 10ZM18.3335 10L18.8342 10.3741C18.9996 10.1524 18.9999 9.84794 18.8344 9.62622L18.3335 10Z" fill="#2C6587"/>
<path d="M7.29186 10C7.29186 8.50424 8.50443 7.29167 10.0002 7.29167C11.496 7.29167 12.7085 8.50424 12.7085 10C12.7085 11.4958 11.496 12.7083 10.0002 12.7083C8.50443 12.7083 7.29186 11.4958 7.29186 10ZM10.0002 8.54167C9.19479 8.54167 8.54186 9.19459 8.54186 10C8.54186 10.8054 9.19479 11.4583 10.0002 11.4583C10.8056 11.4583 11.4585 10.8054 11.4585 10C11.4585 9.19459 10.8056 8.54167 10.0002 8.54167Z" fill="#2C6587"/>
</svg>
