<svg width="20" height="20" viewBox="0 0 20 20" fill="none" xmlns="http://www.w3.org/2000/svg">
<path d="M3.66679 7.64381C5.21508 6.36045 7.43943 5 9.9582 5C12.477 5 14.7013 6.36045 16.2496 7.64381C17.0326 8.29284 17.6647 8.94044 18.1013 9.42575C18.32 9.66881 18.4905 9.87223 18.6074 10.0162C18.6659 10.0882 18.711 10.1454 18.7421 10.1854C18.7576 10.2054 18.7696 10.2211 18.778 10.2322L18.788 10.2453L18.7909 10.2491L18.7918 10.2504C18.7918 10.2504 18.7925 10.2512 18.2915 10.625C18.7925 10.9988 18.7922 10.9991 18.7922 10.9991L18.7909 11.0009L18.788 11.0047L18.778 11.0178C18.7696 11.0289 18.7576 11.0446 18.7421 11.0646C18.711 11.1046 18.6659 11.1618 18.6074 11.2338C18.4905 11.3778 18.32 11.5812 18.1013 11.8243C17.6647 12.3096 17.0326 12.9572 16.2496 13.6062C14.7013 14.8895 12.477 16.25 9.9582 16.25C7.43943 16.25 5.21508 14.8895 3.66679 13.6062C2.88379 12.9572 2.25168 12.3096 1.81509 11.8243C1.59644 11.5812 1.42587 11.3778 1.30897 11.2338C1.2505 11.1618 1.20539 11.1046 1.17433 11.0646C1.1588 11.0446 1.14678 11.0289 1.13836 11.0178L1.12843 11.0047L1.12551 11.0009L1.12456 10.9996C1.12456 10.9996 1.12396 10.9988 1.62487 10.625C1.12396 10.2512 1.12422 10.2509 1.12422 10.2509L1.12551 10.2491L1.12843 10.2453L1.13836 10.2322C1.14678 10.2211 1.1588 10.2054 1.17433 10.1854C1.20539 10.1454 1.2505 10.0882 1.30897 10.0162C1.42587 9.87223 1.59644 9.66881 1.81509 9.42575C2.25168 8.94044 2.88379 8.29284 3.66679 7.64381ZM1.62487 10.625L1.12422 10.2509C0.958768 10.4726 0.958509 10.7771 1.12396 10.9988L1.62487 10.625ZM2.4277 10.625C2.51553 10.7291 2.62151 10.8516 2.7444 10.9882C3.15118 11.4404 3.73947 12.0428 4.4645 12.6438C5.93229 13.8605 7.8746 15 9.9582 15C12.0418 15 13.9841 13.8605 15.4519 12.6438C16.1769 12.0428 16.7652 11.4404 17.172 10.9882C17.2949 10.8516 17.4009 10.7291 17.4887 10.625C17.4009 10.5209 17.2949 10.3984 17.172 10.2618C16.7652 9.80956 16.1769 9.20716 15.4519 8.60619C13.9841 7.38955 12.0418 6.25 9.9582 6.25C7.8746 6.25 5.93229 7.38955 4.4645 8.60619C3.73947 9.20716 3.15118 9.80956 2.7444 10.2618C2.62151 10.3984 2.51553 10.5209 2.4277 10.625ZM18.2915 10.625L18.7922 10.9991C18.9576 10.7774 18.9579 10.4729 18.7925 10.2512L18.2915 10.625Z" fill="#2C6587"/>
<path d="M7.24987 10.625C7.24987 9.12924 8.46244 7.91667 9.9582 7.91667C11.454 7.91667 12.6665 9.12924 12.6665 10.625C12.6665 12.1208 11.454 13.3333 9.9582 13.3333C8.46244 13.3333 7.24987 12.1208 7.24987 10.625ZM9.9582 9.16667C9.1528 9.16667 8.49987 9.81959 8.49987 10.625C8.49987 11.4304 9.1528 12.0833 9.9582 12.0833C10.7636 12.0833 11.4165 11.4304 11.4165 10.625C11.4165 9.81959 10.7636 9.16667 9.9582 9.16667Z" fill="#2C6587"/>
<line x1="4.05981" y1="4.04239" x2="15.0424" y2="15.9402" stroke="#2C6587" stroke-width="1.5" stroke-linecap="round"/>
</svg>
