<svg width="30" height="25" viewBox="0 0 30 25" fill="none" xmlns="http://www.w3.org/2000/svg">
<path d="M11.085 3.24262C11.0259 3.17793 10.9849 3.09885 10.966 3.01332C10.9471 2.92778 10.9511 2.83879 10.9774 2.75524C11.0037 2.6717 11.0515 2.59654 11.1161 2.53729C11.1806 2.47803 11.2595 2.43677 11.345 2.41762C12.544 2.14364 13.7701 2.00651 15 2.00887C19.36 2.00887 23.3212 3.66637 26.4575 6.80262C28.8112 9.15637 29.87 11.5051 29.9137 11.6039C29.9706 11.7318 30 11.8702 30 12.0101C30 12.1501 29.9706 12.2885 29.9137 12.4164C29.87 12.5151 28.8112 14.8626 26.4575 17.2164C26.1008 17.5714 25.7346 17.9076 25.3587 18.2251C25.2599 18.3091 25.1322 18.3513 25.0028 18.3429C24.8733 18.3345 24.7522 18.2761 24.665 18.1801L11.085 3.24262ZM25.74 22.3364C25.8302 22.4332 25.9002 22.547 25.9461 22.6712C25.9919 22.7953 26.0127 22.9273 26.0072 23.0595C26.0017 23.1917 25.9699 23.3215 25.9139 23.4414C25.8578 23.5612 25.7785 23.6688 25.6806 23.7578C25.5827 23.8468 25.468 23.9155 25.3434 23.9598C25.2187 24.0042 25.0865 24.0234 24.9543 24.0163C24.8222 24.0092 24.6928 23.9759 24.5736 23.9184C24.4544 23.8609 24.3478 23.7804 24.26 23.6814L21.5 20.6501C19.4531 21.5554 17.2381 22.0185 15 22.0089C10.64 22.0089 6.67874 20.3514 3.54249 17.2164C1.18874 14.8626 0.124988 12.5151 0.086238 12.4164C0.0293795 12.2885 0 12.1501 0 12.0101C0 11.8702 0.0293795 11.7318 0.086238 11.6039C0.124988 11.5089 1.18874 9.15637 3.54249 6.80262C4.48285 5.85793 5.53183 5.02798 6.66749 4.33012L4.25999 1.68137C4.16982 1.58452 4.09978 1.47072 4.05391 1.3466C4.00804 1.22247 3.98727 1.09047 3.9928 0.958256C3.99832 0.82604 4.03003 0.696236 4.08609 0.576366C4.14215 0.456497 4.22144 0.348946 4.31938 0.259947C4.41731 0.170948 4.53193 0.102271 4.6566 0.0578975C4.78127 0.0135237 4.91351 -0.00566482 5.04564 0.00144404C5.17778 0.0085529 5.3072 0.0418179 5.42639 0.0993108C5.54558 0.156804 5.65217 0.237381 5.73999 0.336373L25.74 22.3364ZM17.5537 16.3051L10.9675 9.05512C10.2888 9.98499 9.95181 11.1206 10.0134 12.2701C10.0749 13.4197 10.5312 14.5128 11.3053 15.3648C12.0794 16.2169 13.1238 16.7758 14.2622 16.9471C15.4006 17.1184 16.5632 16.8917 17.5537 16.3051Z" fill="#343330"/>
</svg>
