<svg width="30" height="20" viewBox="0 0 30 20" fill="none" xmlns="http://www.w3.org/2000/svg">
<path d="M29.9137 9.595C29.87 9.49625 28.8112 7.1475 26.4575 4.79375C23.3212 1.6575 19.36 0 15 0C10.64 0 6.67874 1.6575 3.54249 4.79375C1.18874 7.1475 0.124988 9.5 0.086238 9.595C0.0293795 9.72289 0 9.86129 0 10.0012C0 10.1412 0.0293795 10.2796 0.086238 10.4075C0.129988 10.5062 1.18874 12.8538 3.54249 15.2075C6.67874 18.3425 10.64 20 15 20C19.36 20 23.3212 18.3425 26.4575 15.2075C28.8112 12.8538 29.87 10.5062 29.9137 10.4075C29.9706 10.2796 30 10.1412 30 10.0012C30 9.86129 29.9706 9.72289 29.9137 9.595ZM15 15C14.0111 15 13.0444 14.7068 12.2221 14.1573C11.3999 13.6079 10.759 12.827 10.3806 11.9134C10.0022 10.9998 9.90314 9.99445 10.0961 9.02455C10.289 8.05464 10.7652 7.16373 11.4645 6.46447C12.1637 5.7652 13.0546 5.289 14.0245 5.09607C14.9944 4.90315 15.9998 5.00216 16.9134 5.3806C17.827 5.75904 18.6079 6.3999 19.1573 7.22215C19.7067 8.04439 20 9.01109 20 10C20 11.3261 19.4732 12.5979 18.5355 13.5355C17.5978 14.4732 16.3261 15 15 15Z" fill="#343330"/>
</svg>
