<svg width="56" height="56" viewBox="0 0 56 56" fill="none" xmlns="http://www.w3.org/2000/svg">
<path d="M43.8964 21.3785L38.227 15.7144L21.8223 32.1042L27.4916 37.7684L43.8964 21.3785Z" fill="url(#paint0_linear_4110_16691)"/>
<path d="M43.8964 21.3785L38.227 15.7144L21.8223 32.1042L27.4916 37.7684L43.8964 21.3785Z" fill="url(#paint1_linear_4110_16691)"/>
<path d="M37.0497 28.2191L43.8966 21.3785L38.2272 15.7144L31.3804 22.5549L37.0497 28.2191Z" fill="url(#paint2_linear_4110_16691)"/>
<path d="M27.4916 37.7685L34.3385 30.9279L28.669 25.2637L21.8223 32.1043L27.4916 37.7685Z" fill="url(#paint3_linear_4110_16691)"/>
<path d="M40.8966 16.7421L33.4976 9.34974L38.1983 4.65332L45.5973 12.0456L40.8966 16.7421Z" fill="url(#paint4_linear_4110_16691)"/>
<path d="M40.8966 16.7421L33.4976 9.34974L38.1983 4.65332L45.5973 12.0456L40.8966 16.7421Z" fill="url(#paint5_linear_4110_16691)"/>
<path d="M13.2769 47.8044L11.7768 46.3057C9.86654 44.3971 9.96536 41.2737 11.9924 39.4895L22.9548 29.8402C23.3042 29.5327 23.8327 29.5494 24.1619 29.8782L29.7193 35.4306C30.0486 35.7596 30.0653 36.2875 29.7575 36.6366L20.0994 47.5891C18.3135 49.6143 15.1872 49.713 13.2769 47.8044Z" fill="url(#paint6_linear_4110_16691)"/>
<path d="M14.2673 37.4868L11.9924 39.4892C9.96536 41.2734 9.86654 44.3968 11.7768 46.3054L13.2769 47.8041C15.1872 49.7127 18.3135 49.614 20.0994 47.5887L22.1035 45.3159L14.2673 37.4868Z" fill="url(#paint7_linear_4110_16691)"/>
<path d="M32.0093 11.6145L29.2067 8.81439C28.7182 8.32641 28.7182 7.53519 29.2067 7.04711L35.8938 0.365986C36.3822 -0.121995 37.1741 -0.121995 37.6627 0.365986L40.4653 3.16611C40.9538 3.6541 40.9538 4.44532 40.4653 4.93339L33.7782 11.6144C33.2897 12.1025 32.4978 12.1025 32.0093 11.6145Z" fill="url(#paint8_linear_4110_16691)"/>
<path d="M29.5195 9.12751L32.0089 11.6146C32.4973 12.1025 33.2892 12.1025 33.7777 11.6146L40.4649 4.93344C40.9533 4.44545 40.9533 3.65423 40.4649 3.16616L37.9755 0.679199L29.5195 9.12751Z" fill="url(#paint9_linear_4110_16691)"/>
<path d="M54.0853 31.5007L55.5697 26.3334C56.6821 22.461 55.603 18.2904 52.7517 15.4416L43.7019 6.40006C43.5173 6.21561 43.2179 6.21561 43.0333 6.40006L35.2459 14.1804C35.0613 14.3648 35.0613 14.6639 35.2459 14.8484L44.763 24.3568C44.9476 24.5413 45.247 24.5413 45.4316 24.3568C46.3388 23.4505 47.7462 23.2751 48.8484 23.9312L49.2546 24.173C50.6302 24.9918 51.6928 26.2461 52.2741 27.7366L53.7481 31.5164C53.8099 31.675 54.0382 31.6645 54.0853 31.5007Z" fill="url(#paint10_linear_4110_16691)"/>
<path d="M42.814 22.4093L44.763 24.3566C44.9478 24.5412 45.247 24.5411 45.4317 24.3565C46.339 23.4502 47.7463 23.2749 48.8485 23.931L49.2547 24.1727C50.6302 24.9915 51.6929 26.2457 52.2742 27.7362L53.7482 31.5161C53.7765 31.5886 53.8396 31.6241 53.9042 31.6274V25.3426C53.9042 23.1919 53.049 21.1292 51.5269 19.6085C49.895 17.9782 47.2493 17.9782 45.6174 19.6085L42.814 22.4093Z" fill="url(#paint11_linear_4110_16691)"/>
<path d="M54.0853 31.5007L55.5697 26.3334C55.7362 25.7534 55.8527 25.1668 55.9224 24.5789L40.3801 9.05078L35.2459 14.1803C35.0613 14.3648 35.0613 14.6639 35.2459 14.8483L44.763 24.3568C44.9476 24.5412 45.247 24.5412 45.4316 24.3568C46.3389 23.4503 47.7462 23.275 48.8484 23.9312L49.2546 24.1729C50.6302 24.9918 51.6928 26.2459 52.2741 27.7365L53.7481 31.5162C53.8099 31.6749 54.0382 31.6644 54.0853 31.5007Z" fill="url(#paint12_linear_4110_16691)"/>
<g clip-path="url(#clip0_4110_16691)">
<path d="M2.05288 15.9355C2.86179 15.1266 4.16622 15.1038 5.00289 15.884L32.4199 41.4511L27.5685 46.3025L2.00143 18.8855C1.22116 18.0488 1.24396 16.7444 2.05288 15.9355Z" fill="url(#paint13_linear_4110_16691)"/>
<path d="M2.05288 15.9355C2.86179 15.1266 4.16622 15.1038 5.00289 15.884L32.4199 41.4511L27.5685 46.3025L2.00143 18.8855C1.22116 18.0488 1.24396 16.7444 2.05288 15.9355Z" fill="url(#paint14_linear_4110_16691)"/>
<path d="M14.7599 32.567L6.75078 23.9785L10.096 20.6333L18.1509 28.1447L14.7599 32.567Z" fill="url(#paint15_linear_4110_16691)"/>
<path d="M27.5685 46.3023L19.2793 37.4133L23.531 33.1616L32.4199 41.4508L27.5685 46.3023Z" fill="url(#paint16_linear_4110_16691)"/>
<path d="M39.6612 54.8271L40.9449 53.5434C42.5796 51.9087 42.495 49.2334 40.7604 47.7052L31.3795 39.4404C31.0806 39.1771 30.6283 39.1913 30.3465 39.473L25.5909 44.2287C25.3091 44.5105 25.2948 44.9626 25.5583 45.2617L33.8231 54.6426C35.3514 56.3773 38.0265 56.4617 39.6612 54.8271Z" fill="url(#paint17_linear_4110_16691)"/>
<path d="M38.8137 45.9902L40.7604 47.7053C42.495 49.2335 42.5796 51.9088 40.9449 53.5434L39.6612 54.8271C38.0265 56.4618 35.3513 56.3773 33.823 54.6427L32.108 52.696L38.8137 45.9902Z" fill="url(#paint18_linear_4110_16691)"/>
<path d="M10.9356 24.8025C6.4967 29.2414 5.09507 35.5669 6.72975 41.1977C7.04448 42.2818 5.70479 43.0664 4.90504 42.2698C4.86028 42.2253 4.81577 42.1803 4.77142 42.1352C-1.7366 35.5054 -1.56433 24.9117 5.14742 18.4884C11.6546 12.2608 21.9786 12.3475 28.3795 18.7484C28.39 18.7589 28.4004 18.7694 28.4109 18.7799C29.2029 19.5761 28.4098 20.9098 27.3313 20.5968C21.7003 18.9619 15.3747 20.3635 10.9356 24.8025Z" fill="url(#paint19_linear_4110_16691)"/>
<path d="M8.06245 21.9295C13.7625 16.2294 22.5371 15.5793 28.5796 20.0912C28.3481 20.4923 27.8763 20.755 27.3312 20.5968C21.7002 18.962 15.3746 20.3635 10.9356 24.8026C6.49664 29.2416 5.09501 35.567 6.72969 41.1979C6.88858 41.7452 6.62555 42.2158 6.22344 42.4455C1.71233 36.4031 2.36277 27.6292 8.06245 21.9295Z" fill="url(#paint20_linear_4110_16691)"/>
<path d="M4.02626 19.6704L10.0811 25.7252C8.43126 27.6418 7.29109 29.845 6.65932 32.1587L0.595601 26.0949C1.23134 23.7847 2.37564 21.5851 4.02626 19.6704Z" fill="url(#paint21_linear_4110_16691)"/>
<path d="M10.6807 26.0495L12.1672 24.563C13.1402 23.59 13.1402 22.0123 12.1672 21.0393L8.80881 17.6809C7.8358 16.7079 6.25818 16.7079 5.28516 17.6809L3.79863 19.1675C2.82562 20.1405 2.82562 21.7181 3.79863 22.6911L7.15711 26.0496C8.13013 27.0225 9.70767 27.0225 10.6807 26.0495Z" fill="url(#paint22_linear_4110_16691)"/>
<path d="M10.488 19.3599L12.1672 21.0391C13.1402 22.0121 13.1402 23.5897 12.1672 24.5627L10.6807 26.0492C9.70767 27.0223 8.13005 27.0223 7.15703 26.0492L5.47783 24.37L10.488 19.3599Z" fill="url(#paint23_linear_4110_16691)"/>
</g>
<defs>
<linearGradient id="paint0_linear_4110_16691" x1="31.3742" y1="25.2576" x2="34.4883" y2="28.3745" gradientUnits="userSpaceOnUse">
<stop stop-color="#F9F5F3"/>
<stop offset="1" stop-color="#EFE2DD"/>
</linearGradient>
<linearGradient id="paint1_linear_4110_16691" x1="32.5082" y1="26.3905" x2="37.2706" y2="31.1572" gradientUnits="userSpaceOnUse">
<stop stop-color="#9E9797" stop-opacity="0"/>
<stop offset="0.3107" stop-color="#979090" stop-opacity="0.311"/>
<stop offset="0.7858" stop-color="#817A7A" stop-opacity="0.786"/>
<stop offset="1" stop-color="#766E6E"/>
</linearGradient>
<linearGradient id="paint2_linear_4110_16691" x1="38.3801" y1="21.2258" x2="41.1284" y2="18.4749" gradientUnits="userSpaceOnUse">
<stop stop-color="#9E9797" stop-opacity="0"/>
<stop offset="0.3107" stop-color="#979090" stop-opacity="0.311"/>
<stop offset="0.7858" stop-color="#817A7A" stop-opacity="0.786"/>
<stop offset="1" stop-color="#766E6E"/>
</linearGradient>
<linearGradient id="paint3_linear_4110_16691" x1="29.5253" y1="30.0724" x2="25.9408" y2="33.6602" gradientUnits="userSpaceOnUse">
<stop stop-color="#9E9797" stop-opacity="0"/>
<stop offset="0.3107" stop-color="#979090" stop-opacity="0.311"/>
<stop offset="0.7858" stop-color="#817A7A" stop-opacity="0.786"/>
<stop offset="1" stop-color="#766E6E"/>
</linearGradient>
<linearGradient id="paint4_linear_4110_16691" x1="41.2368" y1="9.00582" x2="37.9983" y2="12.2472" gradientUnits="userSpaceOnUse">
<stop stop-color="#F9F5F3"/>
<stop offset="1" stop-color="#EFE2DD"/>
</linearGradient>
<linearGradient id="paint5_linear_4110_16691" x1="38.5492" y1="9.70032" x2="36.331" y2="7.48006" gradientUnits="userSpaceOnUse">
<stop stop-color="#9E9797" stop-opacity="0"/>
<stop offset="0.3107" stop-color="#979090" stop-opacity="0.311"/>
<stop offset="0.7858" stop-color="#817A7A" stop-opacity="0.786"/>
<stop offset="1" stop-color="#766E6E"/>
</linearGradient>
<linearGradient id="paint6_linear_4110_16691" x1="16.8975" y1="37.0211" x2="22.7756" y2="42.9045" gradientUnits="userSpaceOnUse">
<stop stop-color="#FD4755"/>
<stop offset="1" stop-color="#A72B2B"/>
</linearGradient>
<linearGradient id="paint7_linear_4110_16691" x1="15.8692" y1="43.7154" x2="12.2532" y2="47.3348" gradientUnits="userSpaceOnUse">
<stop stop-color="#A72B2B" stop-opacity="0"/>
<stop offset="1" stop-color="#42210B"/>
</linearGradient>
<linearGradient id="paint8_linear_4110_16691" x1="33.2655" y1="4.42121" x2="36.8892" y2="8.04826" gradientUnits="userSpaceOnUse">
<stop stop-color="#F9F5F3"/>
<stop offset="1" stop-color="#EFE2DD"/>
</linearGradient>
<linearGradient id="paint9_linear_4110_16691" x1="34.7609" y1="5.91576" x2="37.8016" y2="8.95923" gradientUnits="userSpaceOnUse">
<stop stop-color="#9E9797" stop-opacity="0"/>
<stop offset="0.3107" stop-color="#979090" stop-opacity="0.311"/>
<stop offset="0.7858" stop-color="#817A7A" stop-opacity="0.786"/>
<stop offset="1" stop-color="#766E6E"/>
</linearGradient>
<linearGradient id="paint10_linear_4110_16691" x1="45.5539" y1="9.59387" x2="45.5539" y2="22.9981" gradientUnits="userSpaceOnUse">
<stop stop-color="#F9F5F3"/>
<stop offset="1" stop-color="#EFE2DD"/>
</linearGradient>
<linearGradient id="paint11_linear_4110_16691" x1="48.359" y1="27.4797" x2="48.359" y2="19.7174" gradientUnits="userSpaceOnUse">
<stop stop-color="#F9F5F3"/>
<stop offset="1" stop-color="#EFE2DD"/>
</linearGradient>
<linearGradient id="paint12_linear_4110_16691" x1="47.9363" y1="19.5891" x2="40.8811" y2="26.6507" gradientUnits="userSpaceOnUse">
<stop stop-color="#9E9797" stop-opacity="0"/>
<stop offset="0.3107" stop-color="#979090" stop-opacity="0.311"/>
<stop offset="0.7858" stop-color="#817A7A" stop-opacity="0.786"/>
<stop offset="1" stop-color="#766E6E"/>
</linearGradient>
<linearGradient id="paint13_linear_4110_16691" x1="17.2944" y1="28.6353" x2="14.6272" y2="31.3025" gradientUnits="userSpaceOnUse">
<stop stop-color="#F9F5F3"/>
<stop offset="1" stop-color="#EFE2DD"/>
</linearGradient>
<linearGradient id="paint14_linear_4110_16691" x1="16.324" y1="29.6057" x2="12.245" y2="33.6847" gradientUnits="userSpaceOnUse">
<stop stop-color="#9E9797" stop-opacity="0"/>
<stop offset="0.3107" stop-color="#979090" stop-opacity="0.311"/>
<stop offset="0.7858" stop-color="#817A7A" stop-opacity="0.786"/>
<stop offset="1" stop-color="#766E6E"/>
</linearGradient>
<linearGradient id="paint15_linear_4110_16691" x1="14.388" y1="28.2885" x2="11.0434" y2="24.9439" gradientUnits="userSpaceOnUse">
<stop stop-color="#9E9797" stop-opacity="0"/>
<stop offset="0.3107" stop-color="#979090" stop-opacity="0.311"/>
<stop offset="0.7858" stop-color="#817A7A" stop-opacity="0.786"/>
<stop offset="1" stop-color="#766E6E"/>
</linearGradient>
<linearGradient id="paint16_linear_4110_16691" x1="25.9586" y1="39.8409" x2="28.4211" y2="42.3034" gradientUnits="userSpaceOnUse">
<stop stop-color="#9E9797" stop-opacity="0"/>
<stop offset="0.3107" stop-color="#979090" stop-opacity="0.311"/>
<stop offset="0.7858" stop-color="#817A7A" stop-opacity="0.786"/>
<stop offset="1" stop-color="#766E6E"/>
</linearGradient>
<linearGradient id="paint17_linear_4110_16691" x1="36.563" y1="45.591" x2="31.5284" y2="50.6256" gradientUnits="userSpaceOnUse">
<stop stop-color="#FD4755"/>
<stop offset="1" stop-color="#A72B2B"/>
</linearGradient>
<linearGradient id="paint18_linear_4110_16691" x1="37.4429" y1="51.3251" x2="40.5401" y2="54.4223" gradientUnits="userSpaceOnUse">
<stop stop-color="#A72B2B" stop-opacity="0"/>
<stop offset="1" stop-color="#42210B"/>
</linearGradient>
<linearGradient id="paint19_linear_4110_16691" x1="5.39786" y1="19.259" x2="12.0224" y2="25.8836" gradientUnits="userSpaceOnUse">
<stop stop-color="#F9F5F3"/>
<stop offset="1" stop-color="#EFE2DD"/>
</linearGradient>
<linearGradient id="paint20_linear_4110_16691" x1="13.5029" y1="27.364" x2="7.80307" y2="21.6642" gradientUnits="userSpaceOnUse">
<stop stop-color="#F9F5F3"/>
<stop offset="1" stop-color="#EFE2DD"/>
</linearGradient>
<linearGradient id="paint21_linear_4110_16691" x1="3.98018" y1="27.2771" x2="6.95786" y2="24.2995" gradientUnits="userSpaceOnUse">
<stop stop-color="#9E9797" stop-opacity="0"/>
<stop offset="0.3107" stop-color="#979090" stop-opacity="0.311"/>
<stop offset="0.7858" stop-color="#817A7A" stop-opacity="0.786"/>
<stop offset="1" stop-color="#766E6E"/>
</linearGradient>
<linearGradient id="paint22_linear_4110_16691" x1="7.98296" y1="18.2865" x2="7.98296" y2="23.8745" gradientUnits="userSpaceOnUse">
<stop stop-color="#5A5A5A"/>
<stop offset="1" stop-color="#444444"/>
</linearGradient>
<linearGradient id="paint23_linear_4110_16691" x1="8.86382" y1="22.7458" x2="10.988" y2="24.87" gradientUnits="userSpaceOnUse">
<stop stop-color="#433F43" stop-opacity="0"/>
<stop offset="1" stop-color="#1A1A1A"/>
</linearGradient>
<clipPath id="clip0_4110_16691">
<rect width="42.1183" height="42.1183" fill="white" transform="matrix(-1 0 0 1 42.1182 13.8818)"/>
</clipPath>
</defs>
</svg>
