<svg width="56" height="56" viewBox="0 0 56 56" fill="none" xmlns="http://www.w3.org/2000/svg">
<path d="M6.81415 7.98438H49.185C50.9662 7.98438 52.4103 9.42847 52.4103 11.2097V38.1864C52.4103 39.9676 50.9662 41.4117 49.185 41.4117H6.81415C5.03296 41.4117 3.58887 39.9676 3.58887 38.1864V11.2097C3.58887 9.42847 5.03296 7.98438 6.81415 7.98438Z" fill="url(#paint0_linear_4110_16833)"/>
<path d="M48.6301 40.9738H7.3692C5.63458 40.9738 4.22852 39.5677 4.22852 37.8327V11.5635C4.22852 9.82843 5.63458 8.42236 7.3692 8.42236H48.6296C50.3647 8.42236 51.7707 9.82843 51.7707 11.5635V37.8327C51.7707 39.5677 50.3647 40.9738 48.6301 40.9738Z" fill="url(#paint1_linear_4110_16833)"/>
<path d="M3.58887 32.5864V38.1863C3.58887 39.9675 5.03296 41.4116 6.81415 41.4116H49.185C50.9662 41.4116 52.4103 39.9675 52.4103 38.1863V32.5864H3.58887Z" fill="url(#paint2_linear_4110_16833)"/>
<path d="M48.1109 38.7689H7.88824C7.10339 38.7689 6.4668 38.1327 6.4668 37.3478V12.0485C6.4668 11.2636 7.10339 10.6274 7.88824 10.6274H48.1109C48.8957 10.6274 49.5323 11.2636 49.5323 12.0485V37.3478C49.5323 38.1327 48.8957 38.7689 48.1109 38.7689Z" fill="url(#paint3_linear_4110_16833)"/>
<path d="M49.5323 32.5864H6.4668V37.3477C6.4668 38.1325 7.10339 38.7687 7.88824 38.7687H48.1109C48.8957 38.7687 49.5323 38.1325 49.5323 37.3477V32.5864Z" fill="url(#paint4_linear_4110_16833)"/>
<path d="M51.3127 48.0103H4.68732C2.09863 48.0103 0 45.9116 0 43.3229C0 41.7665 1.26166 40.5044 2.81854 40.5044H53.1815C54.7383 40.5044 56 41.7665 56 43.3229C56 45.9116 53.9014 48.0103 51.3127 48.0103Z" fill="url(#paint5_linear_4110_16833)"/>
<path d="M0.0126953 43.6519C0.181457 46.0867 2.20917 48.0102 4.68719 48.0102H51.3126C53.7906 48.0102 55.8183 46.0867 55.9871 43.6519H0.0126953Z" fill="url(#paint6_linear_4110_16833)"/>
<path d="M32.7617 45.3352H23.2375C21.6153 45.3352 20.2998 44.0201 20.2998 42.3979V42.2701C20.2998 41.2947 21.0906 40.5039 22.066 40.5039H33.9328C34.9086 40.5039 35.6995 41.2947 35.6995 42.2701V42.3979C35.6995 44.0201 34.384 45.3352 32.7617 45.3352Z" fill="url(#paint7_linear_4110_16833)"/>
<path d="M33.4056 20.4159C33.1996 20.1814 32.9288 19.9938 32.5998 19.884L27.1387 18.0635C25.6916 17.5812 24.3151 18.9578 24.7974 20.4044L26.6179 25.8659C26.7277 26.1949 26.9153 26.4657 27.1498 26.6713L35.6683 35.1897C36.2916 35.9032 37.4059 36.0484 38.1946 35.4332L41.1618 38.3906C41.5207 38.8525 42.2043 38.8978 42.62 38.4825L45.2164 35.8857C45.6321 35.47 45.5868 34.7864 45.1249 34.4275L42.1675 31.4603C42.7828 30.6716 42.6375 29.5573 41.924 28.9339L33.4056 20.4159Z" fill="url(#paint8_linear_4110_16833)"/>
<path d="M32.5998 19.884L27.1383 18.0635C25.6916 17.5812 24.3151 18.9578 24.7974 20.4044L26.6179 25.8659C27.0528 27.1711 28.7093 27.5621 29.6821 26.5892L29.9496 26.3218L32.4605 29.6872C32.816 30.1636 33.5111 30.2136 33.9311 29.7936L36.5275 27.1968C36.9479 26.7768 36.8975 26.0817 36.4215 25.7266L33.0561 23.2157L33.3231 22.9482C34.2959 21.9754 33.905 20.319 32.5998 19.884Z" fill="white"/>
<path d="M5.65399 42.2623C5.65399 42.7318 5.27332 43.1125 4.80377 43.1125C4.3338 43.1125 3.95312 42.7318 3.95312 42.2623C3.95312 41.7923 4.3338 41.4116 4.80377 41.4116C5.27332 41.4116 5.65399 41.7923 5.65399 42.2623Z" fill="url(#paint9_linear_4110_16833)"/>
<path d="M8.16766 42.2623C8.16766 42.7318 7.78699 43.1125 7.31744 43.1125C6.84747 43.1125 6.4668 42.7318 6.4668 42.2623C6.4668 41.7923 6.84747 41.4116 7.31744 41.4116C7.78699 41.4116 8.16766 41.7923 8.16766 42.2623Z" fill="url(#paint10_linear_4110_16833)"/>
<path d="M10.6833 42.2623C10.6833 42.7318 10.3022 43.1125 9.83264 43.1125C9.3631 43.1125 8.98242 42.7318 8.98242 42.2623C8.98242 41.7923 9.3631 41.4116 9.83264 41.4116C10.3022 41.4116 10.6833 41.7923 10.6833 42.2623Z" fill="url(#paint11_linear_4110_16833)"/>
<defs>
<linearGradient id="paint0_linear_4110_16833" x1="46.7389" y1="43.4374" x2="8.47497" y2="5.17348" gradientUnits="userSpaceOnUse">
<stop stop-color="#575C55"/>
<stop offset="1" stop-color="#45425A"/>
</linearGradient>
<linearGradient id="paint1_linear_4110_16833" x1="9.75128" y1="6.44975" x2="47.0127" y2="43.7112" gradientUnits="userSpaceOnUse">
<stop stop-color="#575C55"/>
<stop offset="1" stop-color="#45425A"/>
</linearGradient>
<linearGradient id="paint2_linear_4110_16833" x1="27.9996" y1="35.1445" x2="27.9996" y2="43.3967" gradientUnits="userSpaceOnUse">
<stop stop-color="#45425A" stop-opacity="0"/>
<stop offset="0.3474" stop-color="#353343" stop-opacity="0.34902"/>
<stop offset="1" stop-color="#1A1A1A"/>
</linearGradient>
<linearGradient id="paint3_linear_4110_16833" x1="18.7868" y1="15.4854" x2="44.6987" y2="41.3973" gradientUnits="userSpaceOnUse">
<stop stop-color="#A3FFFF"/>
<stop offset="1" stop-color="#1CCBF7"/>
</linearGradient>
<linearGradient id="paint4_linear_4110_16833" x1="27.9996" y1="34.0786" x2="27.9996" y2="41.2404" gradientUnits="userSpaceOnUse">
<stop stop-color="#1CCBF7" stop-opacity="0"/>
<stop offset="1" stop-color="#00A5E8"/>
</linearGradient>
<linearGradient id="paint5_linear_4110_16833" x1="28" y1="41.1658" x2="28" y2="49.5387" gradientUnits="userSpaceOnUse">
<stop stop-color="#575C55"/>
<stop offset="1" stop-color="#45425A"/>
</linearGradient>
<linearGradient id="paint6_linear_4110_16833" x1="27.9999" y1="44.7465" x2="27.9999" y2="49.215" gradientUnits="userSpaceOnUse">
<stop stop-color="#45425A" stop-opacity="0"/>
<stop offset="0.3474" stop-color="#353343" stop-opacity="0.34902"/>
<stop offset="1" stop-color="#1A1A1A"/>
</linearGradient>
<linearGradient id="paint7_linear_4110_16833" x1="36.3092" y1="42.9197" x2="18.4109" y2="42.9197" gradientUnits="userSpaceOnUse">
<stop stop-color="#575C55"/>
<stop offset="1" stop-color="#45425A"/>
</linearGradient>
<linearGradient id="paint8_linear_4110_16833" x1="39.9161" y1="33.1821" x2="28.7492" y2="22.0153" gradientUnits="userSpaceOnUse">
<stop stop-color="#1CCBF7" stop-opacity="0"/>
<stop offset="1" stop-color="#00A5E8"/>
</linearGradient>
<linearGradient id="paint9_linear_4110_16833" x1="4.46004" y1="41.9185" x2="5.17926" y2="42.6377" gradientUnits="userSpaceOnUse">
<stop stop-color="#C6E56F"/>
<stop offset="0.1452" stop-color="#C1E46E"/>
<stop offset="0.3131" stop-color="#B3E16D"/>
<stop offset="0.4923" stop-color="#9CDD6A"/>
<stop offset="0.6794" stop-color="#7CD767"/>
<stop offset="0.8707" stop-color="#52CF62"/>
<stop offset="1" stop-color="#32C95F"/>
</linearGradient>
<linearGradient id="paint10_linear_4110_16833" x1="6.97379" y1="41.9185" x2="7.69302" y2="42.6377" gradientUnits="userSpaceOnUse">
<stop stop-color="#C6E56F"/>
<stop offset="0.1452" stop-color="#C1E46E"/>
<stop offset="0.3131" stop-color="#B3E16D"/>
<stop offset="0.4923" stop-color="#9CDD6A"/>
<stop offset="0.6794" stop-color="#7CD767"/>
<stop offset="0.8707" stop-color="#52CF62"/>
<stop offset="1" stop-color="#32C95F"/>
</linearGradient>
<linearGradient id="paint11_linear_4110_16833" x1="9.48907" y1="41.9185" x2="10.2083" y2="42.6377" gradientUnits="userSpaceOnUse">
<stop stop-color="#FF4C54"/>
<stop offset="1" stop-color="#BE3F45"/>
</linearGradient>
</defs>
</svg>
