<svg width="56" height="56" viewBox="0 0 56 56" fill="none" xmlns="http://www.w3.org/2000/svg">
<path d="M36.7316 18.9019H31.0653C30.2218 18.9019 29.5381 19.5856 29.5381 20.4291V46.6716C29.5381 46.9845 29.7918 47.2383 30.1048 47.2383H53.3565C54.2 47.2383 54.8838 46.5545 54.8838 45.711V37.0541C54.8838 33.5646 53.4976 30.218 51.0301 27.7506L46.0349 22.7554C43.5676 20.2881 40.221 18.9019 36.7316 18.9019Z" fill="url(#paint0_linear_4110_16727)"/>
<path d="M54.8838 37.0542C54.8838 35.5705 54.6323 34.113 54.1546 32.7376L52.204 30.787C51.7628 30.2926 51.121 29.981 50.4063 29.981H50.0349C49.5367 29.981 49.1328 30.3848 49.1328 30.883V34.949C49.1328 35.2479 49.2787 35.512 49.5026 35.6762L54.8839 41.0574V37.0542H54.8838Z" fill="url(#paint1_linear_4110_16727)"/>
<path d="M29.5381 46.6717C29.5381 46.9846 29.7918 47.2384 30.1048 47.2384H53.3565C54.2 47.2384 54.8838 46.5547 54.8838 45.7111V37.0542C54.8838 36.7836 54.8745 36.5142 54.858 36.2456H29.5381V46.6717Z" fill="url(#paint2_linear_4110_16727)"/>
<path d="M37.8342 20.7529H33.4518C32.7994 20.7529 32.2705 21.2925 32.2705 21.9581V33.5513C32.2705 34.3943 32.9402 35.0776 33.7664 35.0776H50.2472C51.1826 35.0776 51.8812 34.2129 51.7186 33.273C51.3583 31.1895 50.3793 29.2523 48.893 27.7358L45.0296 23.7939C43.1212 21.8468 40.5329 20.7529 37.8342 20.7529Z" fill="url(#paint3_linear_4110_16727)"/>
<path d="M38.1941 22.6831H34.722C34.2051 22.6831 33.7861 23.1021 33.7861 23.619V32.6211C33.7861 33.2757 34.3167 33.8064 34.9714 33.8064H48.0288C48.7699 33.8064 49.3234 33.1349 49.1946 32.405C48.909 30.7872 48.1333 29.2829 46.9559 28.1054L43.895 25.0445C42.383 23.5325 40.3323 22.6831 38.1941 22.6831Z" fill="url(#paint4_linear_4110_16727)"/>
<path d="M49.9245 35.7411H50.296C51.6265 35.7411 52.705 34.6626 52.705 33.3321V32.2801C52.705 30.9496 51.6265 29.8711 50.296 29.8711H49.9245C49.4263 29.8711 49.0225 30.275 49.0225 30.7731V34.8392C49.0225 35.3372 49.4263 35.7411 49.9245 35.7411Z" fill="url(#paint5_linear_4110_16727)"/>
<path d="M36.8967 36.9976H34.4708C34.0926 36.9976 33.7861 37.3041 33.7861 37.6822C33.7861 38.0603 34.0927 38.3668 34.4708 38.3668H36.8967C37.2748 38.3668 37.5813 38.0602 37.5813 37.6822C37.5813 37.3041 37.2747 36.9976 36.8967 36.9976Z" fill="url(#paint6_linear_4110_16727)"/>
<path d="M55.3415 43.547H51.2422V40.8175C51.2422 39.1465 52.5967 37.792 54.2677 37.792C54.8608 37.792 55.3415 38.2727 55.3415 38.8658V43.547Z" fill="url(#paint7_linear_4110_16727)"/>
<path d="M27.659 18.6524H9.18596C8.77101 18.6524 8.43457 18.316 8.43457 17.901V2.51506C8.43457 2.10011 8.77101 1.76367 9.18596 1.76367H27.659C28.074 1.76367 28.4104 2.10011 28.4104 2.51506V17.901C28.4104 18.3161 28.074 18.6524 27.659 18.6524Z" fill="url(#paint8_linear_4110_16727)"/>
<path d="M28.4105 2.51495V17.901C28.4105 18.3158 28.074 18.6523 27.6592 18.6523H25.2073L13.1055 6.55046V1.76367H27.6592C28.074 1.76367 28.4105 2.10011 28.4105 2.51495Z" fill="url(#paint9_linear_4110_16727)"/>
<path d="M27.6587 1.76367H22.4102C22.8251 1.76367 23.1615 2.10011 23.1615 2.51506V17.901C23.1615 18.316 22.8251 18.6524 22.4102 18.6524H27.6587C28.0736 18.6524 28.4101 18.316 28.4101 17.901V2.51506C28.4101 2.10011 28.0736 1.76367 27.6587 1.76367Z" fill="url(#paint10_linear_4110_16727)"/>
<path d="M8.43457 14.5791V17.9012C8.43457 18.3162 8.77101 18.6526 9.18596 18.6526H27.659C28.074 18.6526 28.4104 18.3162 28.4104 17.9012V14.5791H8.43457Z" fill="url(#paint11_linear_4110_16727)"/>
<path d="M13.877 6.67939L13.8918 6.68839C14.2295 6.8935 14.6541 6.88999 14.9885 6.6795C15.3302 6.47318 15.7581 6.47318 16.0998 6.6795C16.4415 6.88582 16.8694 6.88582 17.2111 6.6795C17.3695 6.58781 17.5447 6.58583 17.7212 6.61889C17.9224 6.65666 18.1094 6.50579 18.1094 6.30089V1.91664C18.1094 1.7706 17.9911 1.65234 17.8451 1.65234H13.2428C13.0968 1.65234 12.9785 1.77071 12.9785 1.91664V6.29463C12.9785 6.49821 13.1636 6.65062 13.3637 6.61307C13.542 6.57969 13.7189 6.58331 13.877 6.67939Z" fill="url(#paint12_linear_4110_16727)"/>
<path d="M27.3791 41.8376H2.0188C1.44914 41.8376 0.987305 41.3757 0.987305 40.8061V19.6838C0.987305 19.1142 1.44914 18.6523 2.0188 18.6523H27.3791C27.9488 18.6523 28.4106 19.1142 28.4106 19.6838V40.8061C28.4106 41.3757 27.9488 41.8376 27.3791 41.8376Z" fill="url(#paint13_linear_4110_16727)"/>
<path d="M28.4105 19.6837V40.8062C28.4105 41.3756 27.9486 41.8376 27.3792 41.8376H24.0132L7.39941 25.2238V18.6523H27.3792C27.9486 18.6523 28.4105 19.1143 28.4105 19.6837Z" fill="url(#paint14_linear_4110_16727)"/>
<path d="M27.3792 18.6523H20.1738C20.7435 18.6523 21.2053 19.1142 21.2053 19.6838V40.8062C21.2053 41.3758 20.7435 41.8377 20.1738 41.8377H27.3792C27.9488 41.8377 28.4107 41.3758 28.4107 40.8062V19.684C28.4107 19.1142 27.9488 18.6523 27.3792 18.6523Z" fill="url(#paint15_linear_4110_16727)"/>
<path d="M0.987305 36.2456V40.8063C0.987305 41.376 1.44914 41.8378 2.0188 41.8378H27.3791C27.9488 41.8378 28.4106 41.376 28.4106 40.8063V36.2456H0.987305Z" fill="url(#paint16_linear_4110_16727)"/>
<path d="M8.45815 25.4008L8.47835 25.4131C8.94205 25.6946 9.525 25.6899 9.98398 25.4008C10.4531 25.1175 11.0405 25.1175 11.5097 25.4008C11.9788 25.6841 12.5662 25.6841 13.0354 25.4008C13.2528 25.275 13.4935 25.2722 13.7358 25.3177C14.0121 25.3695 14.2688 25.1623 14.2688 24.8812V18.8624C14.2688 18.662 14.1062 18.4995 13.9058 18.4995H7.58751C7.38712 18.4995 7.22461 18.662 7.22461 18.8624V24.8726C7.22461 25.1521 7.47881 25.3614 7.75343 25.3099C7.99818 25.264 8.24095 25.2689 8.45815 25.4008Z" fill="url(#paint17_linear_4110_16727)"/>
<path d="M30.1678 47.2385H2.10648C0.943106 47.2385 0 46.2954 0 45.132V43.9444C0 42.781 0.943106 41.8379 2.10648 41.8379H30.1678C30.7696 41.8379 31.2576 42.3259 31.2576 42.9277V46.1486C31.2576 46.7505 30.7696 47.2385 30.1678 47.2385Z" fill="url(#paint18_linear_4110_16727)"/>
<path d="M17.6904 43.0752V47.238H21.8532L17.6904 43.0752Z" fill="url(#paint19_linear_4110_16727)"/>
<path d="M46.0078 47.2385H53.8935C55.0569 47.2385 56 46.2954 56 45.132V43.9444C56 42.781 55.0569 41.8379 53.8935 41.8379H46.0078V47.2385Z" fill="url(#paint20_linear_4110_16727)"/>
<path d="M49.6611 43.0757V47.2385H53.8239L49.6611 43.0757Z" fill="url(#paint21_linear_4110_16727)"/>
<path d="M11.9805 54.3472C15.8918 54.3472 19.0625 51.1764 19.0625 47.2651C19.0625 43.3538 15.8918 40.1831 11.9805 40.1831C8.06917 40.1831 4.89844 43.3538 4.89844 47.2651C4.89844 51.1764 8.06917 54.3472 11.9805 54.3472Z" fill="url(#paint22_linear_4110_16727)"/>
<path d="M11.9803 52.4544C14.8463 52.4544 17.1697 50.131 17.1697 47.265C17.1697 44.399 14.8463 42.0757 11.9803 42.0757C9.11436 42.0757 6.79102 44.399 6.79102 47.265C6.79102 50.131 9.11436 52.4544 11.9803 52.4544Z" fill="url(#paint23_linear_4110_16727)"/>
<path d="M11.9804 50.4945C13.764 50.4945 15.2099 49.0487 15.2099 47.2651C15.2099 45.4815 13.764 44.0356 11.9804 44.0356C10.1968 44.0356 8.75098 45.4815 8.75098 47.2651C8.75098 49.0487 10.1968 50.4945 11.9804 50.4945Z" fill="url(#paint24_linear_4110_16727)"/>
<path d="M44.0195 54.3472C47.9308 54.3472 51.1015 51.1764 51.1015 47.2651C51.1015 43.3538 47.9308 40.1831 44.0195 40.1831C40.1082 40.1831 36.9375 43.3538 36.9375 47.2651C36.9375 51.1764 40.1082 54.3472 44.0195 54.3472Z" fill="url(#paint25_linear_4110_16727)"/>
<path d="M44.0194 52.4544C46.8854 52.4544 49.2087 50.131 49.2087 47.265C49.2087 44.399 46.8854 42.0757 44.0194 42.0757C41.1534 42.0757 38.8301 44.399 38.8301 47.265C38.8301 50.131 41.1534 52.4544 44.0194 52.4544Z" fill="url(#paint26_linear_4110_16727)"/>
<path d="M44.0195 50.4945C45.8031 50.4945 47.2489 49.0487 47.2489 47.2651C47.2489 45.4815 45.8031 44.0356 44.0195 44.0356C42.2359 44.0356 40.79 45.4815 40.79 47.2651C40.79 49.0487 42.2359 50.4945 44.0195 50.4945Z" fill="url(#paint27_linear_4110_16727)"/>
<defs>
<linearGradient id="paint0_linear_4110_16727" x1="27.1305" y1="24.175" x2="50.4603" y2="47.5048" gradientUnits="userSpaceOnUse">
<stop stop-color="#FD4755"/>
<stop offset="1" stop-color="#AC2538"/>
</linearGradient>
<linearGradient id="paint1_linear_4110_16727" x1="55.8179" y1="38.201" x2="50.0733" y2="32.4563" gradientUnits="userSpaceOnUse">
<stop stop-color="#972437" stop-opacity="0"/>
<stop offset="1" stop-color="#972437"/>
</linearGradient>
<linearGradient id="paint2_linear_4110_16727" x1="42.211" y1="39.2776" x2="42.211" y2="45.2629" gradientUnits="userSpaceOnUse">
<stop stop-color="#972437" stop-opacity="0"/>
<stop offset="1" stop-color="#972437"/>
</linearGradient>
<linearGradient id="paint3_linear_4110_16727" x1="50.5749" y1="40.0078" x2="29.2181" y2="20.298" gradientUnits="userSpaceOnUse">
<stop stop-color="#FD4755"/>
<stop offset="1" stop-color="#AC2538"/>
</linearGradient>
<linearGradient id="paint4_linear_4110_16727" x1="32.6763" y1="22.9141" x2="47.6242" y2="37.862" gradientUnits="userSpaceOnUse">
<stop stop-color="#EAF6FF"/>
<stop offset="0.2575" stop-color="#DCE8FA"/>
<stop offset="0.7423" stop-color="#B8C4ED"/>
<stop offset="1" stop-color="#A2AEE6"/>
</linearGradient>
<linearGradient id="paint5_linear_4110_16727" x1="48.7873" y1="31.171" x2="51.9488" y2="34.3326" gradientUnits="userSpaceOnUse">
<stop stop-color="#537983"/>
<stop offset="1" stop-color="#3E5959"/>
</linearGradient>
<linearGradient id="paint6_linear_4110_16727" x1="35.6837" y1="36.9232" x2="35.6837" y2="38.8997" gradientUnits="userSpaceOnUse">
<stop stop-color="#FEE45A"/>
<stop offset="1" stop-color="#FE860A"/>
</linearGradient>
<linearGradient id="paint7_linear_4110_16727" x1="51.4455" y1="39.1377" x2="55.3591" y2="43.0512" gradientUnits="userSpaceOnUse">
<stop stop-color="#FEE45A"/>
<stop offset="1" stop-color="#FE860A"/>
</linearGradient>
<linearGradient id="paint8_linear_4110_16727" x1="11.7901" y1="3.57566" x2="27.7383" y2="19.5239" gradientUnits="userSpaceOnUse">
<stop stop-color="#FEE45A"/>
<stop offset="1" stop-color="#FE860A"/>
</linearGradient>
<linearGradient id="paint9_linear_4110_16727" x1="27.0572" y1="10.5661" x2="6.49384" y2="-4.04375" gradientUnits="userSpaceOnUse">
<stop stop-color="#FE860A" stop-opacity="0"/>
<stop offset="1" stop-color="#FE7701"/>
</linearGradient>
<linearGradient id="paint10_linear_4110_16727" x1="29.0739" y1="6.11806" x2="16.4919" y2="19.3876" gradientUnits="userSpaceOnUse">
<stop stop-color="#FE860A" stop-opacity="0"/>
<stop offset="1" stop-color="#FE7701"/>
</linearGradient>
<linearGradient id="paint11_linear_4110_16727" x1="18.4224" y1="15.8325" x2="18.4224" y2="19.4436" gradientUnits="userSpaceOnUse">
<stop stop-color="#FE860A" stop-opacity="0"/>
<stop offset="1" stop-color="#FE7701"/>
</linearGradient>
<linearGradient id="paint12_linear_4110_16727" x1="13.6359" y1="2.20971" x2="19.3175" y2="7.89129" gradientUnits="userSpaceOnUse">
<stop stop-color="#EAF6FF"/>
<stop offset="0.2575" stop-color="#DCE8FA"/>
<stop offset="0.7423" stop-color="#B8C4ED"/>
<stop offset="1" stop-color="#A2AEE6"/>
</linearGradient>
<linearGradient id="paint13_linear_4110_16727" x1="5.5938" y1="21.1398" x2="27.4879" y2="43.034" gradientUnits="userSpaceOnUse">
<stop stop-color="#FEE45A"/>
<stop offset="1" stop-color="#FE860A"/>
</linearGradient>
<linearGradient id="paint14_linear_4110_16727" x1="26.5526" y1="30.7366" x2="-1.67731" y2="10.6799" gradientUnits="userSpaceOnUse">
<stop stop-color="#FE860A" stop-opacity="0"/>
<stop offset="1" stop-color="#FE7701"/>
</linearGradient>
<linearGradient id="paint15_linear_4110_16727" x1="29.322" y1="24.6302" x2="12.0492" y2="42.8469" gradientUnits="userSpaceOnUse">
<stop stop-color="#FE860A" stop-opacity="0"/>
<stop offset="1" stop-color="#FE7701"/>
</linearGradient>
<linearGradient id="paint16_linear_4110_16727" x1="14.699" y1="37.9663" x2="14.699" y2="42.9238" gradientUnits="userSpaceOnUse">
<stop stop-color="#FE860A" stop-opacity="0"/>
<stop offset="1" stop-color="#FE7701"/>
</linearGradient>
<linearGradient id="paint17_linear_4110_16727" x1="8.12698" y1="19.2648" x2="15.9268" y2="27.0647" gradientUnits="userSpaceOnUse">
<stop stop-color="#EAF6FF"/>
<stop offset="0.2575" stop-color="#DCE8FA"/>
<stop offset="0.7423" stop-color="#B8C4ED"/>
<stop offset="1" stop-color="#A2AEE6"/>
</linearGradient>
<linearGradient id="paint18_linear_4110_16727" x1="15.6287" y1="43.353" x2="15.6287" y2="46.3084" gradientUnits="userSpaceOnUse">
<stop stop-color="#EAF6FF"/>
<stop offset="0.2575" stop-color="#DCE8FA"/>
<stop offset="0.7423" stop-color="#B8C4ED"/>
<stop offset="1" stop-color="#A2AEE6"/>
</linearGradient>
<linearGradient id="paint19_linear_4110_16727" x1="22.788" y1="50.2542" x2="16.3552" y2="43.8213" gradientUnits="userSpaceOnUse">
<stop stop-color="#8795DE" stop-opacity="0"/>
<stop offset="0.4678" stop-color="#7D8DDC" stop-opacity="0.468"/>
<stop offset="1" stop-color="#6C7FD8"/>
</linearGradient>
<linearGradient id="paint20_linear_4110_16727" x1="51.0039" y1="43.353" x2="51.0039" y2="46.3084" gradientUnits="userSpaceOnUse">
<stop stop-color="#EAF6FF"/>
<stop offset="0.2575" stop-color="#DCE8FA"/>
<stop offset="0.7423" stop-color="#B8C4ED"/>
<stop offset="1" stop-color="#A2AEE6"/>
</linearGradient>
<linearGradient id="paint21_linear_4110_16727" x1="54.7588" y1="50.2547" x2="48.3259" y2="43.8218" gradientUnits="userSpaceOnUse">
<stop stop-color="#8795DE" stop-opacity="0"/>
<stop offset="0.4678" stop-color="#7D8DDC" stop-opacity="0.468"/>
<stop offset="1" stop-color="#6C7FD8"/>
</linearGradient>
<linearGradient id="paint22_linear_4110_16727" x1="7.45138" y1="42.7359" x2="16.7572" y2="52.0417" gradientUnits="userSpaceOnUse">
<stop stop-color="#537983"/>
<stop offset="1" stop-color="#3E5959"/>
</linearGradient>
<linearGradient id="paint23_linear_4110_16727" x1="14.3808" y1="49.6654" x2="7.65386" y2="42.9385" gradientUnits="userSpaceOnUse">
<stop stop-color="#537983"/>
<stop offset="1" stop-color="#3E5959"/>
</linearGradient>
<linearGradient id="paint24_linear_4110_16727" x1="9.8656" y1="45.1502" x2="14.48" y2="49.7647" gradientUnits="userSpaceOnUse">
<stop stop-color="#EAF6FF"/>
<stop offset="0.2575" stop-color="#DCE8FA"/>
<stop offset="0.7423" stop-color="#B8C4ED"/>
<stop offset="1" stop-color="#A2AEE6"/>
</linearGradient>
<linearGradient id="paint25_linear_4110_16727" x1="39.4903" y1="42.7359" x2="48.7961" y2="52.0417" gradientUnits="userSpaceOnUse">
<stop stop-color="#537983"/>
<stop offset="1" stop-color="#3E5959"/>
</linearGradient>
<linearGradient id="paint26_linear_4110_16727" x1="46.4197" y1="49.6654" x2="39.6929" y2="42.9385" gradientUnits="userSpaceOnUse">
<stop stop-color="#537983"/>
<stop offset="1" stop-color="#3E5959"/>
</linearGradient>
<linearGradient id="paint27_linear_4110_16727" x1="41.9045" y1="45.1502" x2="46.5189" y2="49.7647" gradientUnits="userSpaceOnUse">
<stop stop-color="#EAF6FF"/>
<stop offset="0.2575" stop-color="#DCE8FA"/>
<stop offset="0.7423" stop-color="#B8C4ED"/>
<stop offset="1" stop-color="#A2AEE6"/>
</linearGradient>
</defs>
</svg>
